<svg width="7" height="11" viewBox="0 0 7 11" fill="none" xmlns="http://www.w3.org/2000/svg">
<path id="Vector" d="M6.36794 4.60731L1.3671 0.439942C1.1971 0.29932 0.978298 0.231796 0.758614 0.252157C0.53893 0.272519 0.336267 0.379105 0.195005 0.548577C0.0537425 0.718048 -0.0146061 0.936592 0.00492635 1.15635C0.0244588 1.37611 0.13028 1.57917 0.299218 1.72107L4.53169 5.24791L0.299218 8.77474C0.129629 8.91644 0.0232229 9.11966 0.00337299 9.33977C-0.0164769 9.55987 0.051853 9.77885 0.193353 9.94861C0.334852 10.1184 0.537949 10.225 0.758029 10.2451C0.978109 10.2652 1.19717 10.1972 1.3671 10.0559L6.36794 5.88844C6.46171 5.8101 6.53713 5.71213 6.58889 5.60145C6.64065 5.49076 6.66747 5.37007 6.66747 5.24788C6.66747 5.12569 6.64065 5.00499 6.58889 4.89431C6.53713 4.78362 6.46171 4.68565 6.36794 4.60731Z" fill="black"/>
</svg>
