<svg width="108" height="135" viewBox="0 0 108 135" fill="none" xmlns="http://www.w3.org/2000/svg">
<path d="M33.2321 2.45605H31.2321V4.45605V82.8401H29.3921H28.3681C27.7425 82.8401 27.3161 82.7901 27.0464 82.7279C26.9787 82.4251 26.9121 81.9182 26.9121 81.1281V71.1441C26.9121 70.525 26.8773 69.9398 26.7857 69.4205C26.7014 68.9428 26.5351 68.3106 26.1281 67.7681L24.5281 68.9681L26.1281 67.7681C25.5744 67.0297 24.7615 66.7575 24.2502 66.6372C23.6753 66.502 23.0232 66.4561 22.3521 66.4561H6.22413C5.04419 66.4561 3.93097 66.9462 3.21603 68.0187C2.5965 68.948 2.43213 70.089 2.43213 71.1441V82.6641C2.43213 88.3381 4.14278 92.8183 8.04841 95.4572L8.05861 95.4641L8.0689 95.4709C11.7806 97.9128 16.9716 99.0001 23.3761 99.0001H29.3921H31.2321H31.3921H33.2321H45.0881V123.704C45.0881 125.278 45.1993 126.67 45.4538 127.841C45.7023 128.984 46.1258 130.099 46.8882 130.937L46.9203 130.973L46.9539 131.006C47.779 131.831 48.8838 132.309 50.0372 132.591C51.2066 132.877 52.5846 133 54.1281 133H67.5681H69.5681V131V45.7521C69.5681 44.1693 69.4453 42.7624 69.1613 41.5749C68.8858 40.4229 68.4198 39.3127 67.6074 38.4833C66.8121 37.6279 65.716 37.1475 64.5972 36.8678C63.4422 36.579 62.0697 36.4561 60.5281 36.4561H55.7121V11.7521C55.7121 10.1693 55.5893 8.76243 55.3053 7.57491C55.0298 6.42286 54.5638 5.31266 53.7514 4.48325C52.956 3.62784 51.86 3.14746 50.7412 2.86777C49.5862 2.57902 48.2137 2.45605 46.6721 2.45605H33.2321ZM26.8046 82.6517C26.8047 82.6517 26.8061 82.6524 26.8088 82.6539C26.8059 82.6525 26.8046 82.6517 26.8046 82.6517ZM81.3921 90.7281H79.3921V92.7281V125.88C79.3921 127.803 79.9368 129.556 81.1922 130.937C82.4559 132.327 84.1196 133 86.0001 133H103.152H105.152V131V101.688C105.152 98.4091 104.598 95.5767 103.059 93.6657C101.434 91.5591 98.8908 90.7281 95.9841 90.7281H81.3921ZM81.7761 36.4561H79.7761V38.4561V72.2481C79.7761 73.1328 79.6693 73.6187 79.588 73.8542C79.3485 73.9104 78.9429 73.9601 78.3201 73.9601H72.6881H70.6881V75.9601V88.1201V90.1201H72.6881H88.4321C94.1169 90.1201 98.6684 88.8798 101.057 85.585C103.295 82.5293 104.256 78.1901 104.256 72.8881V45.7521C104.256 44.1946 104.168 42.8328 103.971 41.6974C103.78 40.6015 103.456 39.5219 102.85 38.6877C102.161 37.7414 101.145 37.1998 100.106 36.891C99.0639 36.5811 97.8398 36.4561 96.4961 36.4561H81.7761ZM79.7673 73.7987C79.7675 73.7989 79.763 73.8012 79.7529 73.8053C79.762 73.8005 79.7671 73.7984 79.7673 73.7987Z" fill="white" stroke="black" stroke-width="4"/>
</svg>
